# xmcd CD database file
#
# Track frame offsets:
#	150
#	19614
#	40474
#	64711
#	85919
#	109459
#	131759
#	154884
#	173306
#	194039
#	218474
#
# Disc length: 3246 seconds
#
# Revision: 5
# Processed by: cddbd v1.5.1PL2 Copyright (c) Steve Scherf et al.
# Submitted via: CDex 1.51
#
DISCID=940cac0b
DTITLE=Spyro Gyra - Dreams Beyond Control
DYEAR=1993
DGENRE=Jazz
TTITLE0=Walk The Walk
TTITLE1=Patterns In The Rain
TTITLE2=Breakfast At Igor's
TTITLE3=Waltz For Isabel
TTITLE4=South Beach
TTITLE5=Send Me One Line
TTITLE6=Bahia
TTITLE7=Kindred Spirit
TTITLE8=Birks Law
TTITLE9=Same Difference
TTITLE10=The Delicate Prey
EXTD=YEAR: 1993
EXTT0=
EXTT1=
EXTT2=
EXTT3=
EXTT4=
EXTT5=
EXTT6=
EXTT7=
EXTT8=
EXTT9=
EXTT10=
PLAYORDER=
